<svg height="408" width="512" xmlns="http://www.w3.org/2000/svg"><defs><linearGradient gradientUnits="userSpaceOnUse" y2="365.945" y1="10.798" x2="523.48" x1="76.079" id="bs-logo-a"><stop stop-color="#9013fe"></stop><stop stop-color="#6610f2" offset="1"></stop></linearGradient><linearGradient gradientUnits="userSpaceOnUse" y2="278.872" y1="109.74" x2="293.514" x1="193.508" id="bs-logo-b"><stop stop-color="#fff"></stop><stop stop-color="#f1e5fc" offset="1"></stop></linearGradient><filter filterUnits="userSpaceOnUse" color-interpolation-filters="sRGB" y="83.457" x="161.901" height="249" width="197" id="bs-logo-c" xmlns="http://www.w3.org/2000/svg"><feFlood result="BackgroundImageFix" flood-opacity="0"></feFlood><feColorMatrix values="0 0 0 0 0 0 0 0 0 0 0 0 0 0 0 0 0 0 127 0" in="SourceAlpha"></feColorMatrix><feOffset dy="4"></feOffset><feGaussianBlur stdDeviation="8"></feGaussianBlur><feColorMatrix values="0 0 0 0 0 0 0 0 0 0 0 0 0 0 0 0 0 0 0.15 0"></feColorMatrix><feBlend result="effect1_dropShadow" in2="BackgroundImageFix"></feBlend><feBlend result="shape" in2="effect1_dropShadow" in="SourceGraphic"></feBlend></filter></defs><path d="M56.481 53.32C55.515 25.58 77.128 0 106.342 0h299.353c29.214 0 50.827 25.58 49.861 53.32-.928 26.647.277 61.165 8.964 89.31 8.715 28.232 23.411 46.077 47.48 48.37v26c-24.069 2.293-38.765 20.138-47.48 48.37-8.687 28.145-9.892 62.663-8.964 89.311.966 27.739-20.647 53.319-49.861 53.319H106.342c-29.214 0-50.827-25.58-49.86-53.319.927-26.648-.278-61.166-8.966-89.311C38.802 237.138 24.07 219.293 0 217v-26c24.069-2.293 38.802-20.138 47.516-48.37 8.688-28.145 9.893-62.663 8.965-89.31z" fill="url(#bs-logo-a)"></path><path d="M267.103 312.457c47.297 0 75.798-23.158 75.798-61.355 0-28.873-20.336-49.776-50.532-53.085v-1.203c22.185-3.609 39.594-24.211 39.594-47.219 0-32.783-25.882-54.138-65.322-54.138h-88.74v217h89.202zm-54.692-189.48h45.911c24.958 0 39.131 11.128 39.131 31.279 0 21.505-16.484 33.535-46.372 33.535h-38.67v-64.814zm0 161.961v-71.431h45.602c32.661 0 49.608 12.03 49.608 35.49 0 23.459-16.484 35.941-47.605 35.941h-47.605z" stroke="#fff" filter="url(#bs-logo-c)" fill="url(#bs-logo-b)"></path></svg>